<svg xmlns="http://www.w3.org/2000/svg" width="452.075" height="262.141" viewBox="0 0 452.075 262.141"><g transform="translate(-690.727 -1645.604)"><path d="M789.164,1776.394a1.162,1.162,0,0,1-1.1-.8h0a12.714,12.714,0,0,1-.628-3.956h0a12.753,12.753,0,0,1,7.26-11.511h0a17.832,17.832,0,0,1,17.821-17.191h0a17.815,17.815,0,0,1,14.533,7.5h0a10.184,10.184,0,0,1,3.953-.793h0a10.223,10.223,0,0,1,9.731,7.09h0q.386-.021.78-.022h0a14.933,14.933,0,0,1,14.933,14.931h0a14.964,14.964,0,0,1-.517,3.9h0a1.159,1.159,0,0,1-1.12.858H789.164Zm65.642-1.16v0Zm-.92-1.159a12.582,12.582,0,0,0,.238-2.437h0a12.569,12.569,0,0,0-3.694-8.917h0a12.573,12.573,0,0,0-8.919-3.694h0a12.728,12.728,0,0,0-1.51.094h0a1.162,1.162,0,0,1-1.272-.911h0a7.9,7.9,0,0,0-7.728-6.251h0a7.864,7.864,0,0,0-3.8.972h0a1.157,1.157,0,0,1-1.54-.4h0a15.5,15.5,0,0,0-13.147-7.275h0a15.457,15.457,0,0,0-10.969,4.543h0A15.458,15.458,0,0,0,797,1760.766h0c0,.017,0,.055,0,.114h0a1.157,1.157,0,0,1-.725,1.081h0a10.437,10.437,0,0,0-6.526,9.676h0a10.407,10.407,0,0,0,.288,2.437h63.845Z" fill="#2f2933"/><path d="M876.838,1752.26a3.492,3.492,0,0,1-3.492,3.492h-9.779a3.492,3.492,0,0,1-3.493-3.492h0a3.493,3.493,0,0,1,3.493-3.492h9.779a3.492,3.492,0,0,1,3.492,3.492Z" fill="none" stroke="#10273d" stroke-linecap="round" stroke-linejoin="round" stroke-width="2.32"/><path d="M1071.6,1732.734a12.991,12.991,0,0,0-5.861,1.392,9.134,9.134,0,0,0-7.757-8.632,19.142,19.142,0,0,0-36.407-2.318c-.146,0-.29-.011-.437-.011a18.275,18.275,0,0,0-17.642,13.516,22.2,22.2,0,0,0-23.878,10.841H1084.53a13.191,13.191,0,0,0,.119-1.74A13.05,13.05,0,0,0,1071.6,1732.734Z" fill="none" stroke="#10273d" stroke-linecap="round" stroke-linejoin="round" stroke-width="2.32"/><path d="M1046.607,1711.765l-3.479,43.053,22.617.87s.87-36.965-2.175-42.183S1046.607,1711.765,1046.607,1711.765Z" fill="#fff"/><path d="M934.827,1704.372a1.305,1.305,0,1,1-1.305-1.3A1.305,1.305,0,0,1,934.827,1704.372Z" fill="#10273d"/><path d="M848.443,1700.841a1.305,1.305,0,1,1-1.305-1.3A1.3,1.3,0,0,1,848.443,1700.841Z" fill="#10273d"/><path d="M968.505,1646.908a1.305,1.305,0,1,1-1.3-1.3A1.3,1.3,0,0,1,968.505,1646.908Z" fill="#10273d"/><path d="M979.381,1723.894a1.305,1.305,0,1,1-1.3-1.3A1.305,1.305,0,0,1,979.381,1723.894Z" fill="#10273d"/><path d="M946.32,1740.422a1.305,1.305,0,1,1-1.3-1.3A1.3,1.3,0,0,1,946.32,1740.422Z" fill="#10273d"/><path d="M1028.1,1678.66a1.305,1.305,0,1,1-1.305-1.3A1.305,1.305,0,0,1,1028.1,1678.66Z" fill="#10273d"/><path d="M847.138,1729.983a1.305,1.305,0,1,1-1.3-1.3A1.3,1.3,0,0,1,847.138,1729.983Z" fill="#10273d"/><path d="M777.1,1789.57a1.305,1.305,0,1,1-1.305-1.3A1.3,1.3,0,0,1,777.1,1789.57Z" fill="#10273d"/><path d="M795.371,1692.578a1.305,1.305,0,1,1-1.3-1.3A1.3,1.3,0,0,1,795.371,1692.578Z" fill="#10273d"/><path d="M869.323,1656.477a1.305,1.305,0,1,1-1.305-1.3A1.3,1.3,0,0,1,869.323,1656.477Z" fill="#10273d"/><path d="M1082.478,1771.3a1.305,1.305,0,1,1-1.305-1.3A1.305,1.305,0,0,1,1082.478,1771.3Z" fill="#29d9c2"/><path d="M917.174,1664.306a1.305,1.305,0,1,1-1.3-1.3A1.3,1.3,0,0,1,917.174,1664.306Z" fill="#29d9c2"/><path d="M888.9,1705.626a1.305,1.305,0,1,1-1.3-1.3A1.3,1.3,0,0,1,888.9,1705.626Z" fill="#29d9c2"/><path d="M765.356,1717.8a1.305,1.305,0,1,1-1.3-1.3A1.3,1.3,0,0,1,765.356,1717.8Z" fill="#29d9c2"/><path d="M943.3,1796.99s-34.217-40.011-47.556-55.088c-14.632-16.538-20.221,4.95-27.838,2.9-15.079-4.059-73.654,74.8-75.394,75.963" fill="#fff"/><path d="M876.6,1740.162s-9.859,30.153-9.859,36.532,4.64,15.656,4.64,15.656l-6.38-4.639a32.581,32.581,0,0,1,1.16,7.538c0,3.479,9.279,7.538,8.7,12.177s5.22,4.639,5.22,4.639l-2.32,7.538,5.993.773,9.413-4.133-10.186-.7,23.585-11.791,32.477-.773,1.933-7.731s-27.258-31.893-34.217-39.431-16.239-22.035-22.038-19.716A39.116,39.116,0,0,0,876.6,1740.162Z" fill="#bdf271"/><path d="M791.543,1821.407a1.16,1.16,0,0,1,.251-1.557h0l.044-.045h0c.059-.062.152-.166.267-.3h0c.231-.27.556-.662.96-1.16h0c.808-1,1.934-2.414,3.321-4.165h0c2.775-3.5,6.6-8.342,11.055-13.855h0c8.915-11.028,20.364-24.755,31.088-35.943h0c7.156-7.461,13.969-13.789,19.591-17.479h0c3.226-2.1,6.042-3.392,8.568-3.414h0a5.83,5.83,0,0,1,1.515.191h0a2.849,2.849,0,0,0,.747.1h0a4.369,4.369,0,0,0,2.182-.7h0a17.317,17.317,0,0,0,2.574-1.962h0a43.651,43.651,0,0,1,6.181-5.051h0a10.451,10.451,0,0,1,5.394-1.623h0c3.4,0,7.107,1.912,11.329,6.692h0c13.354,15.094,47.566,55.1,47.569,55.1h0a1.16,1.16,0,0,1-.128,1.636h0a1.16,1.16,0,0,1-1.635-.128h0c-.006-.006-2.138-2.5-5.554-6.486h0c-3.416-3.986-8.11-9.459-13.22-15.4h0c-10.22-11.885-22.11-25.657-28.769-33.185h0c-4.022-4.538-7.126-5.912-9.591-5.909h0c-2.216-.006-4.224,1.118-6.2,2.7h0c-1.97,1.571-3.813,3.543-5.776,4.961h0a7.582,7.582,0,0,1-4.357,1.677h0a5.222,5.222,0,0,1-1.349-.179h0a3.493,3.493,0,0,0-.913-.112h0c-1.536-.018-3.866.867-6.6,2.589h0a71.419,71.419,0,0,0-9.309,7.261h0a281.451,281.451,0,0,0-22.174,23.028h0c-15.161,17.277-29.485,35.9-33.882,41.3h0c-.6.729-.99,1.2-1.27,1.488h0a1.9,1.9,0,0,1-.3.257h0a1.154,1.154,0,0,1-.642.195h0a1.16,1.16,0,0,1-.967-.517Z" fill="#2f2933"/><path d="M997.233,1768.576s-1.45,9.278-1.45,11.887,4.35,3.189,5.22,6.379,2.03,9.858,2.03,9.858-3.48-8.118-5.22-8.988a20.871,20.871,0,0,1-2.9-1.74s3.19,4.929,3.48,8.118a29.448,29.448,0,0,0,2.03,7.248s.58,6.669.87,10.148,6.669,9.278,6.669,9.278h50.456s-32.7-49.05-51.326-53.348C999.552,1765.677,997.233,1768.576,997.233,1768.576Z" fill="#bdf271"/><path d="M907.173,1834.8s57.663-62.01,65.494-65.49,10.439,4.349,30.881-2.174c17.484-5.579,68.059,69.4,68.059,69.4Z" fill="none" stroke="#10273d" stroke-linecap="round" stroke-linejoin="round" stroke-width="2.32"/><path d="M963.6,1820.184s2.32-13.337,2.9-14.787,6.959-8.7,7.829-11.887,2.61-8.408,2.61-8.408-1.45,14.787-3.77,19.426-.87,15.656-.87,15.656Z" fill="#bdf271"/><path d="M980.124,1819.6s2.03-11.887,2.03-13.627,1.74-14.5,2.03-17.686,1.45-11.6,1.45-11.6,1.16,22.9.58,26.964.29,5.8.58,7.538-.58,8.7-.58,8.7Z" fill="#bdf271"/><path d="M1013.986,1788.739s3.48,2.175,4.35,7.828,6.089,8.262,6.089,8.262l-7.829-3.479A28.2,28.2,0,0,0,1013.986,1788.739Z" fill="#fff"/><path d="M885.011,1752.92s8.989,4.639,9.859,8.988a46.205,46.205,0,0,1,.811,8.566s3.479,0,4.349,1.74,4.784,10.872,4.784,10.872-6.524-7.393-8.264-8.7-3.421-12.046-4.29-13.35S885.011,1752.92,885.011,1752.92Z" fill="#fff"/><path d="M889.651,1811.2s-7.249-6.379-7.829-11.6a47.817,47.817,0,0,0-2.61-10.438l-7.829-10.148s11.889,5.8,12.469,8.988,9.279,22.615,9.279,22.615Z" fill="#fff"/><path d="M844.124,1819.6l11.6-45.81-5.22,47.549Z" fill="#bdf271"/><path d="M813.207,1820.452l20.01-20.878-13.05,19.138Z" fill="#bdf271"/><path d="M899.8,1803.368l18.559-8.7,20.685,8.312-4.446,1.933,18.752,10.631h-7.926l9.086,4.832h88.25l.58-21.938-.29-8.7,22.618,34.5-80.9,20.875-95.983-7.538Z" fill="#fff"/><path d="M881.322,1820.629l-95.688-.87-31.751,27.252H876.044v-16.68l-9.569-.58Z" fill="#29d9c2"/><path d="M954.548,1820.629l95.688-.87,31.751,27.252H959.826v-16.68l9.569-.58Z" fill="#29d9c2"/><path d="M887.911,1819.024h53.356l19.139,10.438,7.539-.58-23.778-13.337-52.776-.29Z" fill="#29d9c2"/><path d="M905.31,1803.948h25.518l20.008,10.438-8.409,1.16-15.079-8.118h-26.1Z" fill="#29d9c2"/><path d="M917.779,1795.54l4.93,8.118,12.759-1.16Z" fill="#29d9c2"/><path d="M878.342,1835.841h81.194l.29-5.509H877.762Z" fill="#29d9c2"/><path d="M897.48,1839.03h40.887l-4.64-4.059-30.158.87Z" fill="#29d9c2"/><path d="M929.765,1852.271v13.144H946.97v-13.724Z" fill="#29d9c2"/><path d="M910.433,1852.271v13.144h17.205v-13.724Z" fill="#29d9c2"/><path d="M891.294,1852.271v13.144H908.5v-13.724Z" fill="#29d9c2"/><path d="M891.874,1878.775v22.446h3.576v-23.437Z" fill="#29d9c2"/><path d="M911.013,1878.775v22.446h3.576v-23.437Z" fill="#29d9c2"/><path d="M930.3,1878.775v22.446h3.576v-23.437Z" fill="#29d9c2"/><path d="M949,1878.775v22.446h3.576v-23.437Z" fill="#a6d1e7"/><path d="M969.782,1847.245v5.992h-9.473v-6.958Z" fill="#01a2a6"/><path d="M969.782,1897.106v7.74h-9.473v-8.988Z" fill="#01a2a6"/><path d="M966.882,1853.431v17.009h-6.766l.387-17.009Z" fill="#01a2a6"/><path d="M966.882,1874.451v22.663h-6.766l.387-22.663Z" fill="#01a2a6"/><path d="M968.96,1871.068v3.624l-8.264-.58.435-3.914Z" fill="#01a2a6"/><rect width="108.065" height="1.546" transform="translate(964.368 1874.885)" fill="#01a2a6"/><rect width="106.518" height="4.252" transform="translate(965.915 1852.657)" fill="#29d9c2"/><rect width="5.993" height="8.312" transform="translate(976.741 1857.682)" fill="#29d9c2"/><rect width="5.993" height="8.312" transform="translate(994.43 1857.682)" fill="#29d9c2"/><rect width="5.993" height="8.312" transform="translate(1047.205 1857.682)" fill="#a6d1e7"/><rect width="5.993" height="8.312" transform="translate(855.863 1857.682)" fill="#29d9c2"/><rect width="5.993" height="8.312" transform="translate(829.332 1857.682)" fill="#29d9c2"/><rect width="5.993" height="8.312" transform="translate(811.499 1857.682)" fill="#29d9c2"/><rect width="5.993" height="8.312" transform="translate(802.8 1857.682)" fill="#29d9c2"/><rect width="8.409" height="12.177" transform="translate(969.685 1879.331)" fill="#a6d1e7"/><rect width="8.409" height="12.177" transform="translate(832.908 1879.331)" fill="#29d9c2"/><rect width="8.409" height="12.177" transform="translate(805.506 1879.331)" fill="#29d9c2"/><rect width="8.409" height="12.177" transform="translate(1024.201 1879.331)" fill="#a6d1e7"/><path d="M941.557,1833.811l12.469,9.568v2.609h1.45v7.1h-1.45v10.148h1.16v7.683h-1.015v3.334h1.16v26.819l-5.655-.87.145-18.266,1.015-.725-.29-12.757-.58-3.624-2.175-16.381-.145-4.494-15.514-11.017Z" fill="#29d9c2"/><rect width="3.625" height="5.799" transform="translate(873.702 1847.293)" fill="#01a2a6"/><rect width="5.8" height="17.976" transform="translate(872.397 1853.092)" fill="#01a2a6"/><rect width="2.61" height="3.769" transform="translate(874.572 1870.488)" fill="#a6d1e7"/><rect width="4.785" height="22.615" transform="translate(872.687 1873.967)" fill="#01a2a6"/><rect width="2.175" height="8.553" transform="translate(875.007 1896.147)" fill="#01a2a6"/><rect width="113.212" height="2.6" transform="translate(762.302 1847.592)" fill="#01a2a6"/><rect width="113.086" height="5.219" transform="translate(764.912 1874.12)" fill="#01a2a6"/><path d="M966.205,1819.894l14.789,13.047H968.235v14.207l-9.279.29.87-17.106,9.569-.58-13.629-8.988Z" fill="#01a2a6"/><path d="M881.242,1820.764,861.9,1833.677h11.308v13.916l4.549.135v-17.976l-6.959-.58Z" fill="#01a2a6"/><path d="M897.479,1803.93l20.96-8.627,20.96,8.627Z" fill="none" stroke="#10273d" stroke-linecap="round" stroke-linejoin="round" stroke-width="2.32"/><path d="M944.281,1815.463l25.774,14.344H867.806l23.854-14.3" fill="none" stroke="#10273d" stroke-linecap="round" stroke-linejoin="round" stroke-width="2.32"/><path d="M930.02,1803.949l24.162,11.525H882.7l24.533-11.525" fill="none" stroke="#10273d" stroke-linecap="round" stroke-linejoin="round" stroke-width="2.32"/><path d="M881.486,1820.275h-93.2l-33.6,27.26H876.751" fill="none" stroke="#10273d" stroke-linecap="round" stroke-linejoin="round" stroke-width="2.32"/><line y2="74.596" transform="translate(877.893 1829.732)" stroke-width="2.319" stroke="#10273d" stroke-linecap="round" stroke-linejoin="round" fill="none"/><line y2="74.596" transform="translate(959.685 1829.732)" stroke-width="2.319" stroke="#10273d" stroke-linecap="round" stroke-linejoin="round" fill="none"/><path d="M902.93,1835.49l-15.282,8.657H949.3l-15.282-8.657Z" fill="none" stroke="#10273d" stroke-linecap="round" stroke-linejoin="round" stroke-width="2.32"/><rect width="58.332" height="3.851" transform="translate(889.306 1844.332)" stroke-width="2.32" stroke="#10273d" stroke-linecap="round" stroke-linejoin="round" fill="none"/><rect width="67.635" height="2.724" transform="translate(884.782 1848.591)" stroke-width="2.32" stroke="#10273d" stroke-linecap="round" stroke-linejoin="round" fill="none"/><rect width="67.635" height="2.724" transform="translate(884.782 1866.061)" stroke-width="2.32" stroke="#10273d" stroke-linecap="round" stroke-linejoin="round" fill="none"/><rect width="67.635" height="2.724" transform="translate(884.782 1875.781)" stroke-width="2.32" stroke="#10273d" stroke-linecap="round" stroke-linejoin="round" fill="none"/><rect width="64.676" height="6.3" transform="translate(886.262 1869.45)" stroke-width="2.32" stroke="#10273d" stroke-linecap="round" stroke-linejoin="round" fill="none"/><rect width="3.1" height="14.371" transform="translate(888.587 1851.604)" stroke-width="2.32" stroke="#10273d" stroke-linecap="round" stroke-linejoin="round" fill="none"/><rect width="5.038" height="3.593" transform="translate(887.618 1878.865)" stroke-width="2.32" stroke="#10273d" stroke-linecap="round" stroke-linejoin="round" fill="none"/><rect width="5.038" height="3.593" transform="translate(906.64 1878.865)" stroke-width="2.32" stroke="#10273d" stroke-linecap="round" stroke-linejoin="round" fill="none"/><rect width="5.037" height="3.593" transform="translate(925.398 1878.865)" stroke-width="2.32" stroke="#10273d" stroke-linecap="round" stroke-linejoin="round" fill="none"/><rect width="5.038" height="3.593" transform="translate(945.477 1878.865)" stroke-width="2.32" stroke="#10273d" stroke-linecap="round" stroke-linejoin="round" fill="none"/><rect width="3.1" height="14.371" transform="translate(946.359 1851.604)" stroke-width="2.32" stroke="#10273d" stroke-linecap="round" stroke-linejoin="round" fill="none"/><rect width="3.1" height="14.371" transform="translate(907.468 1851.604)" stroke-width="2.32" stroke="#10273d" stroke-linecap="round" stroke-linejoin="round" fill="none"/><rect width="3.1" height="14.371" transform="translate(926.35 1851.604)" stroke-width="2.32" stroke="#10273d" stroke-linecap="round" stroke-linejoin="round" fill="none"/><rect width="3.1" height="18.765" transform="translate(888.587 1882.458)" stroke-width="2.32" stroke="#10273d" stroke-linecap="round" stroke-linejoin="round" fill="none"/><rect width="3.1" height="18.765" transform="translate(946.359 1882.458)" stroke-width="2.32" stroke="#10273d" stroke-linecap="round" stroke-linejoin="round" fill="none"/><rect width="3.1" height="18.765" transform="translate(907.468 1882.458)" stroke-width="2.32" stroke="#10273d" stroke-linecap="round" stroke-linejoin="round" fill="none"/><rect width="3.1" height="18.765" transform="translate(926.35 1882.458)" stroke-width="2.32" stroke="#10273d" stroke-linecap="round" stroke-linejoin="round" fill="none"/><rect width="116.03" height="5.706" transform="translate(761.862 1847.535)" stroke-width="2.32" stroke="#10273d" stroke-linecap="round" stroke-linejoin="round" fill="none"/><line x2="12.094" transform="translate(878.214 1824.358)" stroke-width="2.32" stroke="#10273d" stroke-linecap="round" stroke-linejoin="round" fill="none"/><line x2="19.789" transform="translate(905.7 1824.358)" stroke-width="2.32" stroke="#10273d" stroke-linecap="round" stroke-linejoin="round" fill="none"/><line x2="4.031" transform="translate(893.973 1824.358)" stroke-width="2.32" stroke="#10273d" stroke-linecap="round" stroke-linejoin="round" fill="none"/><line x2="4.031" transform="translate(933.185 1824.358)" stroke-width="2.32" stroke="#10273d" stroke-linecap="round" stroke-linejoin="round" fill="none"/><line x2="2.016" transform="translate(943.538 1824.358)" stroke-width="2.32" stroke="#10273d" stroke-linecap="round" stroke-linejoin="round" fill="none"/><rect width="115.695" height="3.479" transform="translate(761.7 1870.743)" stroke-width="2.32" stroke="#10273d" stroke-linecap="round" stroke-linejoin="round" fill="none"/><line y2="16.525" transform="translate(765.615 1853.783)" stroke-width="2.319" stroke="#10273d" stroke-linecap="round" stroke-linejoin="round" fill="none"/><line y2="22.18" transform="translate(765.615 1875.092)" stroke-width="2.319" stroke="#10273d" stroke-linecap="round" stroke-linejoin="round" fill="none"/><rect width="5.673" height="8.697" transform="translate(775.88 1857.407)" fill="none" stroke="#10273d" stroke-width="2.32"/><rect width="8.226" height="12.611" transform="translate(779.504 1878.861)" fill="none" stroke="#10273d" stroke-width="2.32"/><rect width="8.226" height="12.611" transform="translate(805.6 1878.861)" fill="none" stroke="#10273d" stroke-width="2.32"/><rect width="8.226" height="12.611" transform="translate(833.002 1878.861)" fill="none" stroke="#10273d" stroke-width="2.32"/><rect width="8.226" height="12.611" transform="translate(859.968 1878.861)" fill="none" stroke="#10273d" stroke-width="2.32"/><rect width="5.673" height="8.697" transform="translate(785.449 1857.407)" fill="none" stroke="#10273d" stroke-width="2.32"/><rect width="5.673" height="8.697" transform="translate(802.576 1857.407)" fill="none" stroke="#10273d" stroke-width="2.32"/><rect width="5.673" height="8.697" transform="translate(812.146 1857.407)" fill="none" stroke="#10273d" stroke-width="2.32"/><rect width="5.673" height="8.697" transform="translate(828.964 1857.407)" fill="none" stroke="#10273d" stroke-width="2.32"/><rect width="5.673" height="8.697" transform="translate(838.534 1857.407)" fill="none" stroke="#10273d" stroke-width="2.32"/><rect width="5.673" height="8.697" transform="translate(855.642 1857.407)" fill="none" stroke="#10273d" stroke-width="2.32"/><rect width="5.673" height="8.697" transform="translate(865.212 1857.407)" fill="none" stroke="#10273d" stroke-width="2.32"/><path d="M879.067,1904.94H764.526v-8.118H879.067" fill="none" stroke="#10273d" stroke-width="2.32"/><path d="M954.113,1820.275h95.95l33.6,27.26H961.595" fill="none" stroke="#10273d" stroke-linecap="round" stroke-linejoin="round" stroke-width="2.32"/><rect width="116.03" height="5.706" transform="translate(960.453 1847.535)" stroke-width="2.32" stroke="#10273d" stroke-linecap="round" stroke-linejoin="round" fill="none"/><rect width="115.695" height="3.479" transform="translate(960.95 1870.743)" stroke-width="2.32" stroke="#10273d" stroke-linecap="round" stroke-linejoin="round" fill="none"/><line y2="16.525" transform="translate(1072.731 1853.783)" stroke-width="2.319" stroke="#10273d" stroke-linecap="round" stroke-linejoin="round" fill="none"/><line y2="22.18" transform="translate(1072.731 1875.092)" stroke-width="2.319" stroke="#10273d" stroke-linecap="round" stroke-linejoin="round" fill="none"/><rect width="5.673" height="8.697" transform="translate(1056.792 1857.407)" fill="none" stroke="#10273d" stroke-width="2.32"/><rect width="8.226" height="12.611" transform="translate(1050.615 1878.861)" fill="none" stroke="#10273d" stroke-width="2.32"/><rect width="8.226" height="12.611" transform="translate(1024.519 1878.861)" fill="none" stroke="#10273d" stroke-width="2.32"/><rect width="8.226" height="12.611" transform="translate(997.117 1878.861)" fill="none" stroke="#10273d" stroke-width="2.32"/><rect width="8.226" height="12.611" transform="translate(970.151 1878.861)" fill="none" stroke="#10273d" stroke-width="2.32"/><rect width="5.673" height="8.697" transform="translate(1047.223 1857.407)" fill="none" stroke="#10273d" stroke-width="2.32"/><rect width="5.673" height="8.697" transform="translate(1030.096 1857.407)" fill="none" stroke="#10273d" stroke-width="2.32"/><rect width="5.673" height="8.697" transform="translate(1020.526 1857.407)" fill="none" stroke="#10273d" stroke-width="2.32"/><rect width="5.673" height="8.697" transform="translate(1003.708 1857.407)" fill="none" stroke="#10273d" stroke-width="2.32"/><rect width="5.673" height="8.697" transform="translate(994.139 1857.407)" fill="none" stroke="#10273d" stroke-width="2.32"/><rect width="5.673" height="8.697" transform="translate(977.03 1857.407)" fill="none" stroke="#10273d" stroke-width="2.32"/><rect width="5.673" height="8.697" transform="translate(967.461 1857.407)" fill="none" stroke="#10273d" stroke-width="2.32"/><path d="M959.278,1904.94h114.541v-8.118H959.278" fill="none" stroke="#10273d" stroke-width="2.32"/><rect width="81.092" height="3.461" transform="translate(878.186 1901.479)" stroke-width="2.32" stroke="#10273d" stroke-linecap="round" stroke-linejoin="round" fill="none"/><line x2="20.877" transform="translate(893.221 1810.628)" stroke-width="2.32" stroke="#10273d" stroke-linecap="round" stroke-linejoin="round" fill="none"/><line x2="2.907" transform="translate(918.739 1810.628)" stroke-width="2.32" stroke="#10273d" stroke-linecap="round" stroke-linejoin="round" fill="none"/><line x2="2.907" transform="translate(931.304 1810.628)" stroke-width="2.32" stroke="#10273d" stroke-linecap="round" stroke-linejoin="round" fill="none"/><path d="M1043.629,1816.415v9.278l-7.539.29a14.293,14.293,0,0,0-1.45,7.828c.58,4.059.58,7.538,1.45,8.988s4.35,1.45,4.35,1.45l2.9,2.9-12.469,2.03-.58,3.769.87,3.189-1.45.29-.29,6.089-3.48.58-.29,7.828H985.633l-.58,4.059-11.889-.29v4.639l-5.51-.29,3.19,4.349s-6.38,7.538-5.22,11.887,5.8,10.148,5.8,10.148H1108l-12.179-28.414-13.629-8.7.58-4.639-3.19-1.74-1.16-5.8-.87-6.089-12.469-1.45,3.19-4.349s4.93-.87,5.22-2.03,3.77-14.5-1.74-16.526S1043.629,1816.415,1043.629,1816.415Z" fill="#fff"/><path d="M1137.582,1903.955s4.06-4.945,4.06-7.418-176.016,0-176.016,0,3.19,8.407,5.8,8.9S1137.582,1903.955,1137.582,1903.955Z" fill="#29d9c2"/><rect width="162.097" height="4.059" transform="translate(974.034 1874.982)" fill="#29d9c2"/><path d="M1090.536,1891.806a.87.87,0,0,0-.87-.87H966.577a.87.87,0,0,0-.87.87h0a.87.87,0,0,0,.87.87h123.089a.87.87,0,0,0,.87-.87Z" fill="#29d9c2"/><path d="M1102.4,1891.7a1.063,1.063,0,0,1-1.063,1.063h-4.64a1.063,1.063,0,0,1-1.063-1.063h0a1.063,1.063,0,0,1,1.063-1.063h4.64a1.063,1.063,0,0,1,1.063,1.063Z" fill="#a6d1e7"/><path d="M757.325,1866.67s12.759,0,14.692,9.278.483,10.921.483,10.921,6.089,1.74,7.249,3.479,1.643,2.513,1.643,2.513,7.636-10.244,16.529-7.151,12.276,14.013,13.725,22.035l-116.281-.58" fill="#fff"/><path d="M742.2,1877.9s.818-.312,2.989,3.9c-.432-4.405,3.532-15.954,18.755-14.649-10.439-1.3-12.324-1.595-15.711.733-6.885,4.732-6.034,10.017-6.034,10.017" fill="#bdf271"/><path d="M784.1,1895.857s8.409-11.307,18.124-7.973c-9.279-4.784-17.4-.87-19.718,1.595a7.852,7.852,0,0,0,.58,4.639l1.015,1.74" fill="#bdf271"/><path d="M770.615,1886.627s-8.119.387-10.439,8.312a13.157,13.157,0,0,1,13.532-5.605c2.755.338,3.287-2.706-1.353-2.9A14.886,14.886,0,0,0,770.615,1886.627Z" fill="#bdf271"/><path d="M734.948,1877.736s-7.249,4.929-1.16,11.6c3.18,3.482,6.959,0,12.469,2.319s3.19,5.219,4.06,7.828,13.339,1.16,15.079,3.189a8.836,8.836,0,0,0,3.48,2.609H696.381s-1.885-7.1,4.2-11.452l3.915-2.32h4.785s7.539-11.742,19.863-7.538C732.338,1877.736,732.777,1878.593,734.948,1877.736Z" fill="#bdf271"/><path d="M708.27,1892.523s-6.524-.435-5.945,12.467c10.149,0,37.262-1.015,37.262-1.015s1.595-6.089-7.249-6.813-9.714-2.609-8.554-7.1S717.839,1879.621,708.27,1892.523Z" fill="#a5d650"/><path d="M810.856,1906a1.159,1.159,0,0,1-1.142-1.177h0q0-.214,0-.426h0c-.006-5.892-1.888-10.221-4.79-13.122h0a15.689,15.689,0,0,0-11.256-4.4h0a15.752,15.752,0,0,0-11.394,4.857h0a1.153,1.153,0,0,1-.865.355h0a1.157,1.157,0,0,1-.847-.4h0a11.419,11.419,0,0,0-8.422-3.938h0a1.156,1.156,0,0,1-.941-.514h0a1.156,1.156,0,0,1-.118-1.065h0a14.449,14.449,0,0,0,.981-5.241h0a14.446,14.446,0,0,0-4.247-10.251h0a14.451,14.451,0,0,0-10.253-4.246h0a14.5,14.5,0,0,0-14.225,11.686h0a1.16,1.16,0,0,1-.733.863h0a1.161,1.161,0,0,1-1.119-.173h0a7.063,7.063,0,0,0-4.368-1.5h0a7.1,7.1,0,0,0-6.228,3.684h0a1.157,1.157,0,0,1-.735.566h0a1.156,1.156,0,0,1-.915-.153h0a11.822,11.822,0,0,0-6.478-1.921h0a11.848,11.848,0,0,0-8.408,3.482h0a11.844,11.844,0,0,0-3.483,8.407h0a1.16,1.16,0,0,1-1.16,1.16h0a1.16,1.16,0,0,1-1.16-1.16h0a14.21,14.21,0,0,1,14.21-14.209h0a14.141,14.141,0,0,1,6.737,1.7h0a9.415,9.415,0,0,1,7.618-3.875h0a9.386,9.386,0,0,1,4.348,1.063h0a16.826,16.826,0,0,1,16.1-11.936h0a16.82,16.82,0,0,1,16.821,16.817h0a16.785,16.785,0,0,1-.646,4.618h0a13.74,13.74,0,0,1,7.733,3.731h0a18.058,18.058,0,0,1,12.2-4.724h0a18.011,18.011,0,0,1,12.894,5.075h0c3.387,3.37,5.479,8.38,5.472,14.764h0q0,.229,0,.461h0a1.16,1.16,0,0,1-1.159,1.142h-.018Z" fill="#2f2933"/><path d="M782.931,1905.161a1.161,1.161,0,0,1-.62-1.519h0a11.292,11.292,0,0,0,.594-1.836h0a1.159,1.159,0,0,1,1.391-.868h0a1.16,1.16,0,0,1,.868,1.392h0a13.68,13.68,0,0,1-.715,2.211h0a1.162,1.162,0,0,1-1.07.71h0a1.157,1.157,0,0,1-.449-.091Z" fill="#2f2933"/><path d="M783.149,1898.1a11.457,11.457,0,0,0-11.4-10.345h0a11.422,11.422,0,0,0-4.459.9h0a1.16,1.16,0,0,1-1.52-.617h0a1.16,1.16,0,0,1,.617-1.52h0a13.734,13.734,0,0,1,5.363-1.083h0a13.776,13.776,0,0,1,13.711,12.442h0a1.159,1.159,0,0,1-1.044,1.266h0c-.037,0-.075.005-.112.005h0a1.16,1.16,0,0,1-1.153-1.049Z" fill="#2f2933"/><path d="M745.6,1884.418a8.265,8.265,0,0,0-16.53,0" fill="none" stroke="#10273d" stroke-linecap="round" stroke-linejoin="round" stroke-width="2.32"/><path d="M1079.876,1862.32h-50.356v-6.625h50.356Z" fill="#29d9c2"/><path d="M1058.128,1823.083V1712.908l3.48-.58v111.915Z" fill="#29d9c2"/><path d="M1046.529,1823.083V1712.908l3.48-.58v111.915Z" fill="#29d9c2"/><path d="M1049.429,1710.3c0-.435,1.595-16.381,3.19-17.251s4.93,1.595,4.93,1.595l.725,15.367s-2.61-3.624-4.495-2.9A17.067,17.067,0,0,0,1049.429,1710.3Z" fill="#29d9c2"/><rect width="15.659" height="10.438" rx="1.74" transform="translate(1046.529 1828.882)" fill="#29d9c2"/><rect width="8.409" height="10.438" rx="1.74" transform="translate(1066.247 1828.882)" fill="#29d9c2"/><rect width="8.409" height="10.438" rx="1.74" transform="translate(1034.35 1828.882)" fill="#29d9c2"/><path d="M1049.613,1711.566v-10.8c0-1.653,1.573-7.658,3.512-7.658H1055c1.94,0,3.512,6,3.512,7.658v12.43" fill="none" stroke="#10273d" stroke-linecap="round" stroke-linejoin="round" stroke-width="2.32"/><path d="M1056.854,1690.036a2.839,2.839,0,0,1-2.839,2.839h0a2.839,2.839,0,0,1-2.839-2.839h0a2.839,2.839,0,0,1,2.839-2.839h0a2.839,2.839,0,0,1,2.839,2.839Z" fill="none" stroke="#10273d" stroke-linecap="round" stroke-linejoin="round" stroke-width="2.32"/><path d="M1050.464,1824.7V1716.487c0-1.568-1.271-4.543-2.839-4.543h-1.514c-1.568,0-2.84,2.975-2.84,4.543V1824.7Z" fill="none" stroke="#10273d" stroke-linecap="round" stroke-linejoin="round" stroke-width="2.32"/><path d="M1057.658,1824.7V1712.512c0-1.568-1.271-5.111-2.84-5.111H1053.3c-1.568,0-2.84,3.542-2.84,5.111V1824.7Z" fill="none" stroke="#10273d" stroke-linecap="round" stroke-linejoin="round" stroke-width="2.32"/><path d="M1065.231,1824.7V1716.487c0-1.568-1.272-4.543-2.84-4.543h-1.514c-1.568,0-2.839,2.975-2.839,4.543V1824.7Z" fill="none" stroke="#10273d" stroke-linecap="round" stroke-linejoin="round" stroke-width="2.32"/><path d="M2.84,0h33.7a2.839,2.839,0,0,1,2.839,2.839V15.331a2.84,2.84,0,0,1-2.84,2.84H2.839A2.839,2.839,0,0,1,0,15.332V2.84A2.84,2.84,0,0,1,2.84,0Z" transform="translate(1034.752 1825.323)" fill="none" stroke="#10273d" stroke-linecap="round" stroke-linejoin="round" stroke-width="2.32"/><path d="M1039.958,1843.4l4.827,5.678h19.877l3.976-4.827" fill="none" stroke="#10273d" stroke-linecap="round" stroke-linejoin="round" stroke-width="2.32"/><path d="M1078.293,1856.365h-47.327v-6.814h47.327Z" fill="none" stroke="#10273d" stroke-linecap="round" stroke-linejoin="round" stroke-width="2.32"/><path d="M1079.807,1863.179h-50.356v-6.814h50.356Z" fill="none" stroke="#10273d" stroke-linecap="round" stroke-linejoin="round" stroke-width="2.32"/><path d="M1083.215,1869.993h-57.171v-6.814h57.171Z" fill="none" stroke="#10273d" stroke-linecap="round" stroke-linejoin="round" stroke-width="2.32"/><path d="M985.343,1874.118v-3.369h138.952v3.513" fill="none" stroke="#10273d" stroke-linecap="round" stroke-linejoin="round" stroke-width="2.32"/><path d="M973.7,1878.364v-3.64H1135.94v3.833" fill="none" stroke="#10273d" stroke-linecap="round" stroke-linejoin="round" stroke-width="2.32"/><line y1="18.777" transform="translate(1054.305 1668.42)" stroke-width="2.319" stroke="#10273d" stroke-linecap="round" stroke-linejoin="round" fill="none"/><path d="M967.655,1879.041H1139.9l-2.9,4.639H971.135Z" fill="none" stroke="#10273d" stroke-linecap="round" stroke-linejoin="round" stroke-width="2.32"/><path d="M971.135,1883.68a12.648,12.648,0,0,0-5.22,10.728,11.691,11.691,0,0,0,6.09,10.438h164.707s4.93-2.319,4.93-11.6-4.64-9.568-4.64-9.568" fill="none" stroke="#10273d" stroke-linecap="round" stroke-linejoin="round" stroke-width="2.32"/><path d="M696.816,1905.425h-4.929a1.165,1.165,0,0,1-.82-.34h0a1.165,1.165,0,0,1-.34-.82h0c0-.1,0-.208,0-.313h0a14.789,14.789,0,0,1,14.786-14.474h0a14.751,14.751,0,0,1,5.434,1.031h0a1.16,1.16,0,0,1,.652,1.505h0a1.16,1.16,0,0,1-1.5.652h0a12.431,12.431,0,0,0-4.582-.868h0A12.469,12.469,0,0,0,693.1,1903.1h51.563a1.16,1.16,0,0,1,1.16,1.159h0a1.16,1.16,0,0,1-1.16,1.16H696.816Z" fill="#2f2933"/><path d="M749.882,1905.135a1.16,1.16,0,0,1-1.16-1.159h0a1.16,1.16,0,0,1,1.16-1.16h5.509a1.16,1.16,0,0,1,1.16,1.16h0a1.16,1.16,0,0,1-1.16,1.159h-5.509Z" fill="#2f2933"/></g></svg>