<svg xmlns="http://www.w3.org/2000/svg" width="84.485" height="88.313" viewBox="0 0 84.485 88.313"><g transform="translate(-2076.098 -1440.127)"><line x1="3.073" y2="26.139" transform="translate(2118.149 1456.529)" fill="none" stroke="#bdf271" stroke-width="2.396"/><path d="M2095.946,1495.793l22.2-13.125,17.8,17.678" fill="none" stroke="#bdf271" stroke-width="2.396"/><path d="M2096.428,1468.39l21.721,14.278,24.992-8.527" fill="none" stroke="#bdf271" stroke-width="2.396"/><ellipse cx="31.573" cy="31.582" rx="31.573" ry="31.582" transform="translate(2086.576 1451.086)" fill="none" stroke="#01a2a6" stroke-width="3.115"/><ellipse cx="26.414" cy="26.406" rx="26.414" ry="26.406" transform="matrix(0.016, -1, 1, 0.016, 2091.333, 1508.666)" fill="none" stroke="#01a2a6" stroke-width="3.115"/><path d="M2098.918,1526.882h38.461l-19.231-44.214Z" fill="none" stroke="#01a2a6" stroke-width="3.115"/><path d="M2081.888,1463.145a2.87,2.87,0,1,1,2.87,2.871A2.871,2.871,0,0,1,2081.888,1463.145Z" fill="none" stroke="#bdf271" stroke-width="2.396"/><path d="M2077.3,1491.281a2.87,2.87,0,1,1,2.87,2.871A2.871,2.871,0,0,1,2077.3,1491.281Z" fill="none" stroke="#bdf271" stroke-width="2.396"/><ellipse cx="2.87" cy="2.871" rx="2.87" ry="2.871" transform="matrix(1, -0.025, 0.025, 1, 2091.576, 1510.303)" fill="none" stroke="#bdf271" stroke-width="2.396"/><path d="M2144.459,1507.359a2.87,2.87,0,1,1,2.87,2.871A2.871,2.871,0,0,1,2144.459,1507.359Z" fill="none" stroke="#bdf271" stroke-width="2.396"/><path d="M2153.644,1480.371a2.87,2.87,0,1,1,2.87,2.871A2.871,2.871,0,0,1,2153.644,1480.371Z" fill="none" stroke="#bdf271" stroke-width="2.396"/><path d="M2141.589,1452.235a2.87,2.87,0,1,1,2.87,2.871A2.871,2.871,0,0,1,2141.589,1452.235Z" fill="none" stroke="#bdf271" stroke-width="2.396"/><path d="M2110.016,1444.2a2.87,2.87,0,1,1,2.871,2.871A2.871,2.871,0,0,1,2110.016,1444.2Z" fill="none" stroke="#bdf271" stroke-width="2.396"/></g></svg>