<svg xmlns="http://www.w3.org/2000/svg" width="106.507" height="52.307" viewBox="0 0 106.507 52.307"><g transform="translate(-1487.156 -1060.223)"><path d="M1493.716,1106.377s17.428-12.871,24.248-11.736,8.714,6.814,13.261,6.436,4.547-17.793,22.733-5.3" fill="none" stroke="#bdf271" stroke-width="1.894"/><line x2="13.071" y2="18.992" transform="translate(1557.367 1091.739)" fill="none" stroke="#bdf271" stroke-width="1.894"/><path d="M1527.829,1084.356s4.546-3.975,9.093-3.975,31.218,30.858,31.218,30.858H1489.7s26.145-32.939,31.26-33.507,5.159,8.327,9.706,8.9" fill="none" stroke="#01a2a6" stroke-width="2.462"/><path d="M1553.957,1095.777s6.82-9.086,14.4-9.464,23.111,24.986,23.111,24.986h-24.248" fill="none" stroke="#01a2a6" stroke-width="2.462"/><path d="M1566.954,1070.823a7.1,7.1,0,0,0-12.1-6.912,5.683,5.683,0,0,0-6.95,6.912Z" fill="none" stroke="#01a2a6" stroke-width="2.462"/></g></svg>